<svg width="38" height="44" viewBox="0 0 38 44" fill="none" xmlns="http://www.w3.org/2000/svg">
<path fill-rule="evenodd" clip-rule="evenodd" d="M0.744966 14.0464C0 15.6662 0 17.5088 0 21.1942V32.7038C0 37.8219 0 40.381 1.58999 41.9709C3.17998 43.5609 5.73904 43.5609 10.8571 43.5609H11.2143V29.9897C11.2143 27.9383 12.8772 26.2754 14.9286 26.2754H23.0714C25.1228 26.2754 26.7857 27.9383 26.7857 29.9897V43.5609H27.1429C32.261 43.5609 34.82 43.5609 36.41 41.9709C38 40.381 38 37.8219 38 32.7038V21.1942C38 17.5088 38 15.6662 37.255 14.0464C36.5101 12.4267 35.111 11.2275 32.3129 8.82913L29.5986 6.5026C24.541 2.16753 22.0122 0 19 0C15.9878 0 13.459 2.16753 8.4014 6.5026L5.68711 8.82913C2.88899 11.2275 1.48993 12.4267 0.744966 14.0464ZM24.7857 43.5609V29.9897C24.7857 29.0429 24.0182 28.2754 23.0714 28.2754H14.9286C13.9818 28.2754 13.2143 29.0429 13.2143 29.9897V43.5609H24.7857Z" fill="#FFC700"/>
</svg>
