<svg width="37" height="44" viewBox="0 0 37 44" fill="none" xmlns="http://www.w3.org/2000/svg">
<path d="M14.0587 30.8245H3.34067V41.5426M22.6332 13.6755H33.3513V2.95746M2.44678 15.8256C3.64891 12.8512 5.66127 10.2737 8.25518 8.38588C10.8491 6.4981 13.9205 5.37578 17.1205 5.14647C20.3204 4.91715 23.5205 5.59004 26.357 7.08865C29.1936 8.58727 31.553 10.8515 33.167 13.6241M34.2473 28.6744C33.0455 31.6494 31.0331 34.2275 28.439 36.1156C25.8448 38.0038 22.773 39.1264 19.5727 39.3557C16.3724 39.5851 13.1719 38.912 10.335 37.4129C7.49819 35.9139 5.13879 33.6491 3.52502 30.8759" stroke="#FFC700" stroke-width="4.28723" stroke-linecap="round" stroke-linejoin="round"/>
</svg>
